<?xml version="1.0" encoding="UTF-8"?> <svg xmlns="http://www.w3.org/2000/svg" width="1481" height="283" viewBox="0 0 1481 283" fill="none"><path d="M577.353 214H560.58L598.267 109.273H616.523L654.21 214H637.438L607.83 128.295H607.012L577.353 214ZM580.165 172.989H634.574V186.284H580.165V172.989ZM703.237 214H669.334V109.273H704.311C714.573 109.273 723.385 111.369 730.749 115.562C738.112 119.722 743.755 125.705 747.675 133.511C751.63 141.284 753.607 150.608 753.607 161.483C753.607 172.392 751.612 181.767 747.624 189.608C743.669 197.449 737.942 203.483 730.442 207.71C722.942 211.903 713.874 214 703.237 214ZM685.135 200.193H702.368C710.345 200.193 716.976 198.693 722.26 195.693C727.544 192.659 731.499 188.278 734.124 182.551C736.749 176.79 738.061 169.767 738.061 161.483C738.061 153.267 736.749 146.295 734.124 140.568C731.533 134.841 727.664 130.494 722.516 127.528C717.368 124.562 710.976 123.08 703.34 123.08H685.135V200.193ZM868.485 136.784C867.939 131.943 865.689 128.193 861.735 125.534C857.78 122.841 852.803 121.494 846.803 121.494C842.507 121.494 838.791 122.176 835.655 123.54C832.519 124.869 830.081 126.71 828.343 129.062C826.638 131.381 825.786 134.023 825.786 136.989C825.786 139.477 826.365 141.625 827.524 143.432C828.718 145.239 830.269 146.756 832.178 147.983C834.121 149.176 836.201 150.182 838.416 151C840.632 151.784 842.763 152.432 844.808 152.943L855.036 155.602C858.377 156.42 861.803 157.528 865.314 158.926C868.826 160.324 872.081 162.165 875.081 164.449C878.081 166.733 880.502 169.562 882.343 172.938C884.218 176.312 885.155 180.352 885.155 185.057C885.155 190.989 883.621 196.256 880.553 200.858C877.519 205.46 873.104 209.091 867.308 211.75C861.547 214.409 854.576 215.739 846.394 215.739C838.553 215.739 831.769 214.494 826.041 212.006C820.314 209.517 815.831 205.989 812.593 201.42C809.354 196.818 807.564 191.364 807.223 185.057H823.076C823.382 188.841 824.61 191.994 826.757 194.517C828.939 197.006 831.718 198.864 835.093 200.091C838.502 201.284 842.235 201.881 846.291 201.881C850.757 201.881 854.729 201.182 858.206 199.784C861.718 198.352 864.479 196.375 866.49 193.852C868.502 191.295 869.507 188.312 869.507 184.903C869.507 181.801 868.621 179.261 866.848 177.284C865.11 175.307 862.74 173.67 859.74 172.375C856.774 171.08 853.416 169.938 849.666 168.949L837.291 165.574C828.905 163.29 822.257 159.932 817.348 155.5C812.473 151.068 810.036 145.205 810.036 137.909C810.036 131.875 811.672 126.608 814.945 122.108C818.218 117.608 822.649 114.114 828.24 111.625C833.831 109.102 840.138 107.841 847.161 107.841C854.252 107.841 860.507 109.085 865.928 111.574C871.382 114.062 875.678 117.489 878.814 121.852C881.951 126.182 883.587 131.159 883.723 136.784H868.485ZM935.895 215.585C928.531 215.585 922.105 213.898 916.617 210.523C911.128 207.148 906.867 202.426 903.833 196.358C900.799 190.29 899.281 183.199 899.281 175.085C899.281 166.937 900.799 159.812 903.833 153.71C906.867 147.608 911.128 142.869 916.617 139.494C922.105 136.119 928.531 134.432 935.895 134.432C943.259 134.432 949.685 136.119 955.174 139.494C960.662 142.869 964.924 147.608 967.958 153.71C970.992 159.812 972.509 166.937 972.509 175.085C972.509 183.199 970.992 190.29 967.958 196.358C964.924 202.426 960.662 207.148 955.174 210.523C949.685 213.898 943.259 215.585 935.895 215.585ZM935.946 202.75C940.719 202.75 944.674 201.489 947.81 198.966C950.946 196.443 953.264 193.085 954.764 188.892C956.299 184.699 957.066 180.08 957.066 175.034C957.066 170.023 956.299 165.42 954.764 161.227C953.264 157 950.946 153.608 947.81 151.051C944.674 148.494 940.719 147.216 935.946 147.216C931.139 147.216 927.151 148.494 923.98 151.051C920.844 153.608 918.509 157 916.975 161.227C915.475 165.42 914.725 170.023 914.725 175.034C914.725 180.08 915.475 184.699 916.975 188.892C918.509 193.085 920.844 196.443 923.98 198.966C927.151 201.489 931.139 202.75 935.946 202.75ZM1004.87 109.273V214H989.576V109.273H1004.87ZM1075.19 181.426V135.455H1090.53V214H1075.5V200.398H1074.68C1072.87 204.591 1069.97 208.085 1065.99 210.881C1062.03 213.642 1057.11 215.023 1051.21 215.023C1046.16 215.023 1041.7 213.915 1037.81 211.699C1033.96 209.449 1030.92 206.125 1028.71 201.727C1026.53 197.33 1025.43 191.892 1025.43 185.415V135.455H1040.72V183.574C1040.72 188.926 1042.21 193.187 1045.17 196.358C1048.14 199.528 1051.99 201.114 1056.73 201.114C1059.59 201.114 1062.44 200.398 1065.27 198.966C1068.13 197.534 1070.5 195.369 1072.38 192.472C1074.29 189.574 1075.22 185.892 1075.19 181.426ZM1147.74 135.455V147.727H1104.84V135.455H1147.74ZM1116.34 116.636H1131.63V190.938C1131.63 193.903 1132.08 196.136 1132.96 197.636C1133.85 199.102 1134.99 200.108 1136.39 200.653C1137.82 201.165 1139.37 201.42 1141.04 201.42C1142.27 201.42 1143.34 201.335 1144.26 201.165C1145.18 200.994 1145.9 200.858 1146.41 200.756L1149.17 213.386C1148.29 213.727 1147.02 214.068 1145.39 214.409C1143.75 214.784 1141.71 214.989 1139.25 215.023C1135.23 215.091 1131.48 214.375 1128 212.875C1124.52 211.375 1121.71 209.057 1119.56 205.92C1117.42 202.784 1116.34 198.847 1116.34 194.108V116.636ZM1164.65 214V135.455H1179.94V214H1164.65ZM1172.38 123.335C1169.72 123.335 1167.43 122.449 1165.52 120.676C1163.65 118.869 1162.71 116.722 1162.71 114.233C1162.71 111.71 1163.65 109.562 1165.52 107.79C1167.43 105.983 1169.72 105.08 1172.38 105.08C1175.03 105.08 1177.3 105.983 1179.18 107.79C1181.09 109.562 1182.04 111.71 1182.04 114.233C1182.04 116.722 1181.09 118.869 1179.18 120.676C1177.3 122.449 1175.03 123.335 1172.38 123.335ZM1233.6 215.585C1226.23 215.585 1219.81 213.898 1214.32 210.523C1208.83 207.148 1204.57 202.426 1201.54 196.358C1198.5 190.29 1196.98 183.199 1196.98 175.085C1196.98 166.937 1198.5 159.812 1201.54 153.71C1204.57 147.608 1208.83 142.869 1214.32 139.494C1219.81 136.119 1226.23 134.432 1233.6 134.432C1240.96 134.432 1247.39 136.119 1252.88 139.494C1258.37 142.869 1262.63 147.608 1265.66 153.71C1268.69 159.812 1270.21 166.937 1270.21 175.085C1270.21 183.199 1268.69 190.29 1265.66 196.358C1262.63 202.426 1258.37 207.148 1252.88 210.523C1247.39 213.898 1240.96 215.585 1233.6 215.585ZM1233.65 202.75C1238.42 202.75 1242.38 201.489 1245.51 198.966C1248.65 196.443 1250.97 193.085 1252.47 188.892C1254 184.699 1254.77 180.08 1254.77 175.034C1254.77 170.023 1254 165.42 1252.47 161.227C1250.97 157 1248.65 153.608 1245.51 151.051C1242.38 148.494 1238.42 147.216 1233.65 147.216C1228.84 147.216 1224.85 148.494 1221.68 151.051C1218.55 153.608 1216.21 157 1214.68 161.227C1213.18 165.42 1212.43 170.023 1212.43 175.034C1212.43 180.08 1213.18 184.699 1214.68 188.892C1216.21 193.085 1218.55 196.443 1221.68 198.966C1224.85 201.489 1228.84 202.75 1233.65 202.75ZM1302.57 167.364V214H1287.28V135.455H1301.95V148.239H1302.93C1304.73 144.08 1307.56 140.739 1311.42 138.216C1315.3 135.693 1320.19 134.432 1326.09 134.432C1331.44 134.432 1336.13 135.557 1340.15 137.807C1344.18 140.023 1347.3 143.33 1349.51 147.727C1351.73 152.125 1352.84 157.562 1352.84 164.04V214H1337.55V165.881C1337.55 160.188 1336.06 155.739 1333.1 152.534C1330.13 149.295 1326.06 147.676 1320.88 147.676C1317.33 147.676 1314.18 148.443 1311.42 149.977C1308.69 151.511 1306.52 153.761 1304.92 156.727C1303.35 159.659 1302.57 163.205 1302.57 167.364ZM1432.2 154.631L1418.34 157.085C1417.76 155.312 1416.84 153.625 1415.58 152.023C1414.35 150.42 1412.68 149.108 1410.57 148.085C1408.45 147.062 1405.81 146.551 1402.64 146.551C1398.31 146.551 1394.7 147.523 1391.8 149.466C1388.9 151.375 1387.45 153.847 1387.45 156.881C1387.45 159.506 1388.43 161.619 1390.37 163.222C1392.31 164.824 1395.45 166.136 1399.78 167.159L1412.26 170.023C1419.48 171.693 1424.87 174.267 1428.42 177.744C1431.96 181.222 1433.73 185.739 1433.73 191.295C1433.73 196 1432.37 200.193 1429.64 203.875C1426.95 207.523 1423.18 210.386 1418.34 212.466C1413.53 214.545 1407.96 215.585 1401.62 215.585C1392.82 215.585 1385.65 213.71 1380.09 209.96C1374.53 206.176 1371.13 200.807 1369.86 193.852L1384.64 191.602C1385.56 195.455 1387.45 198.369 1390.32 200.347C1393.18 202.29 1396.92 203.261 1401.52 203.261C1406.53 203.261 1410.53 202.222 1413.53 200.142C1416.53 198.028 1418.03 195.455 1418.03 192.42C1418.03 189.966 1417.11 187.903 1415.27 186.233C1413.47 184.562 1410.69 183.301 1406.94 182.449L1393.64 179.534C1386.31 177.864 1380.89 175.205 1377.38 171.557C1373.9 167.909 1372.17 163.29 1372.17 157.699C1372.17 153.062 1373.46 149.006 1376.05 145.528C1378.64 142.051 1382.22 139.341 1386.79 137.398C1391.36 135.42 1396.59 134.432 1402.49 134.432C1410.98 134.432 1417.66 136.273 1422.53 139.955C1427.41 143.602 1430.63 148.494 1432.2 154.631Z" fill="black"></path><path d="M1217.36 100V96.1818L1229.17 83.9432C1230.43 82.6136 1231.47 81.4489 1232.29 80.4489C1233.12 79.4375 1233.74 78.4773 1234.15 77.5682C1234.56 76.6591 1234.76 75.6932 1234.76 74.6705C1234.76 73.5114 1234.49 72.5114 1233.94 71.6705C1233.4 70.8182 1232.65 70.1648 1231.71 69.7102C1230.77 69.2443 1229.7 69.0114 1228.52 69.0114C1227.27 69.0114 1226.18 69.267 1225.25 69.7784C1224.32 70.2898 1223.6 71.0114 1223.1 71.9432C1222.6 72.875 1222.35 73.9659 1222.35 75.2159H1217.32C1217.32 73.0909 1217.81 71.233 1218.79 69.642C1219.77 68.0511 1221.11 66.8182 1222.81 65.9432C1224.52 65.0568 1226.45 64.6136 1228.63 64.6136C1230.82 64.6136 1232.75 65.0511 1234.42 65.9261C1236.1 66.7898 1237.42 67.9716 1238.36 69.4716C1239.3 70.9602 1239.77 72.642 1239.77 74.517C1239.77 75.8125 1239.53 77.0795 1239.04 78.3182C1238.56 79.5568 1237.73 80.9375 1236.53 82.4602C1235.34 83.9716 1233.68 85.8068 1231.56 87.9659L1224.62 95.2273V95.483H1240.34V100H1217.36ZM1258.95 100.58C1256.26 100.568 1253.95 99.858 1252.05 98.4489C1250.14 97.0398 1248.68 94.9886 1247.67 92.2955C1246.65 89.6023 1246.15 86.358 1246.15 82.5625C1246.15 78.7784 1246.65 75.5455 1247.67 72.8636C1248.69 70.1818 1250.15 68.1364 1252.06 66.7273C1253.98 65.3182 1256.28 64.6136 1258.95 64.6136C1261.62 64.6136 1263.91 65.3239 1265.82 66.7443C1267.73 68.1534 1269.19 70.1989 1270.2 72.8807C1271.22 75.5511 1271.73 78.7784 1271.73 82.5625C1271.73 86.3693 1271.23 89.6193 1270.22 92.3125C1269.2 94.9943 1267.74 97.0455 1265.84 98.4659C1263.93 99.875 1261.63 100.58 1258.95 100.58ZM1258.95 96.0284C1261.31 96.0284 1263.16 94.875 1264.49 92.5682C1265.83 90.2614 1266.5 86.9261 1266.5 82.5625C1266.5 79.6648 1266.19 77.2159 1265.58 75.2159C1264.98 73.2045 1264.11 71.6818 1262.97 70.6477C1261.85 69.6023 1260.51 69.0795 1258.95 69.0795C1256.6 69.0795 1254.75 70.2386 1253.41 72.5568C1252.07 74.875 1251.39 78.2102 1251.38 82.5625C1251.38 85.4716 1251.68 87.9318 1252.28 89.9432C1252.9 91.9432 1253.77 93.4602 1254.89 94.4943C1256.02 95.517 1257.37 96.0284 1258.95 96.0284ZM1277.78 100V96.1818L1289.59 83.9432C1290.85 82.6136 1291.89 81.4489 1292.71 80.4489C1293.54 79.4375 1294.16 78.4773 1294.57 77.5682C1294.98 76.6591 1295.18 75.6932 1295.18 74.6705C1295.18 73.5114 1294.91 72.5114 1294.37 71.6705C1293.82 70.8182 1293.08 70.1648 1292.13 69.7102C1291.19 69.2443 1290.13 69.0114 1288.94 69.0114C1287.69 69.0114 1286.6 69.267 1285.67 69.7784C1284.74 70.2898 1284.02 71.0114 1283.52 71.9432C1283.02 72.875 1282.77 73.9659 1282.77 75.2159H1277.75C1277.75 73.0909 1278.23 71.233 1279.21 69.642C1280.19 68.0511 1281.53 66.8182 1283.23 65.9432C1284.94 65.0568 1286.88 64.6136 1289.05 64.6136C1291.24 64.6136 1293.17 65.0511 1294.84 65.9261C1296.52 66.7898 1297.84 67.9716 1298.78 69.4716C1299.72 70.9602 1300.19 72.642 1300.19 74.517C1300.19 75.8125 1299.95 77.0795 1299.46 78.3182C1298.98 79.5568 1298.15 80.9375 1296.96 82.4602C1295.76 83.9716 1294.1 85.8068 1291.98 87.9659L1285.04 95.2273V95.483H1300.76V100H1277.78ZM1319.37 100.477C1317.03 100.477 1314.94 100.074 1313.1 99.267C1311.27 98.4602 1309.82 97.3409 1308.75 95.9091C1307.69 94.4659 1307.13 92.7955 1307.05 90.8977H1312.4C1312.47 91.9318 1312.81 92.8295 1313.44 93.5909C1314.08 94.3409 1314.91 94.9205 1315.93 95.3295C1316.95 95.7386 1318.09 95.9432 1319.34 95.9432C1320.71 95.9432 1321.93 95.7045 1322.98 95.2273C1324.05 94.75 1324.89 94.0852 1325.49 93.233C1326.09 92.3693 1326.39 91.375 1326.39 90.25C1326.39 89.0795 1326.09 88.0511 1325.49 87.1648C1324.9 86.267 1324.03 85.5625 1322.88 85.0511C1321.75 84.5398 1320.37 84.2841 1318.76 84.2841H1315.81V79.9886H1318.76C1320.05 79.9886 1321.19 79.7557 1322.17 79.2898C1323.16 78.8239 1323.93 78.1761 1324.48 77.3466C1325.04 76.5057 1325.32 75.5227 1325.32 74.3977C1325.32 73.3182 1325.08 72.3807 1324.59 71.5852C1324.11 70.7784 1323.43 70.1477 1322.54 69.6932C1321.67 69.2386 1320.63 69.0114 1319.44 69.0114C1318.3 69.0114 1317.24 69.2216 1316.25 69.642C1315.27 70.0511 1314.48 70.642 1313.87 71.4148C1313.25 72.1761 1312.92 73.0909 1312.88 74.1591H1307.78C1307.84 72.2727 1308.39 70.6136 1309.45 69.1818C1310.52 67.75 1311.93 66.6307 1313.68 65.8239C1315.43 65.017 1317.37 64.6136 1319.51 64.6136C1321.75 64.6136 1323.68 65.0511 1325.3 65.9261C1326.94 66.7898 1328.2 67.9432 1329.09 69.3864C1329.98 70.8295 1330.43 72.4091 1330.42 74.125C1330.43 76.0795 1329.88 77.7386 1328.78 79.1023C1327.69 80.4659 1326.23 81.3807 1324.42 81.8466V82.1193C1326.73 82.4716 1328.53 83.392 1329.8 84.8807C1331.09 86.3693 1331.72 88.2159 1331.71 90.4205C1331.72 92.3409 1331.19 94.0625 1330.11 95.5852C1329.04 97.108 1327.58 98.3068 1325.73 99.1818C1323.88 100.045 1321.76 100.477 1319.37 100.477ZM1351.34 100V65.0909H1356.6V95.4659H1372.42V100H1351.34ZM1372.16 69.625V65.0909H1399.18V69.625H1388.29V100H1383.04V69.625H1372.16ZM1416.45 100H1405.15V65.0909H1416.81C1420.23 65.0909 1423.17 65.7898 1425.62 67.1875C1428.07 68.5739 1429.95 70.5682 1431.26 73.1705C1432.58 75.7614 1433.24 78.8693 1433.24 82.4943C1433.24 86.1307 1432.57 89.2557 1431.24 91.8693C1429.93 94.483 1428.02 96.4943 1425.52 97.9034C1423.02 99.3011 1419.99 100 1416.45 100ZM1410.42 95.3977H1416.16C1418.82 95.3977 1421.03 94.8977 1422.79 93.8977C1424.55 92.8864 1425.87 91.4261 1426.74 89.517C1427.62 87.5966 1428.06 85.2557 1428.06 82.4943C1428.06 79.7557 1427.62 77.4318 1426.74 75.5227C1425.88 73.6136 1424.59 72.1648 1422.88 71.1761C1421.16 70.1875 1419.03 69.6932 1416.48 69.6932H1410.42V95.3977Z" fill="black"></path><path d="M123.371 84.2714C106.627 80.7285 89.1951 82.481 73.491 89.2862C57.7869 96.0913 44.588 107.612 35.723 122.252C26.8579 136.893 22.7657 153.928 24.0131 170.997C25.2605 188.067 31.7859 204.326 42.6851 217.522C53.5844 230.718 68.3179 240.198 84.8445 244.647C101.371 249.097 118.872 248.297 134.924 242.357C150.975 236.418 164.782 225.633 174.432 211.497C184.081 197.362 189.095 180.575 188.78 163.463" stroke="#0000FF" stroke-width="24"></path><path d="M203.632 137.388L213.084 192.487L157.906 169.55L203.632 137.388Z" fill="#0000FF"></path><path d="M290.372 160.829L336.615 129.415L281.817 105.583L290.372 160.829Z" fill="#FF0000"></path><path d="M306.125 124.775C314.735 109.983 327.732 98.2347 343.316 91.1582C358.9 84.0817 376.298 82.0271 393.102 85.279C409.905 88.5309 425.281 96.9283 437.1 109.308C448.918 121.687 456.594 137.436 459.063 154.372C461.533 171.308 458.674 188.593 450.883 203.832C443.092 219.071 430.754 231.509 415.579 239.424C400.404 247.339 383.143 250.339 366.187 248.007C349.232 245.675 333.421 238.128 320.946 226.411" stroke="#FF0000" stroke-width="24"></path><path fill-rule="evenodd" clip-rule="evenodd" d="M369.263 132.296C367.642 203.522 308.589 259.949 237.362 258.329C213.742 257.792 191.749 250.938 172.961 239.419C178.925 233.908 184.22 227.675 188.715 220.843C203.276 229.07 220.019 233.928 237.908 234.335C295.883 235.654 343.95 189.725 345.269 131.75C345.423 124.97 344.931 118.325 343.849 111.875C344.555 111.46 345.27 111.059 345.993 110.671C352.507 107.174 359.532 104.845 366.755 103.742C368.612 112.952 369.485 122.509 369.263 132.296ZM160.653 197.789C144.337 178.81 134.709 153.966 135.323 126.975C136.642 68.9997 184.709 23.0709 242.684 24.3896C280.973 25.2606 314.009 46.523 331.648 77.5636C338.961 73.917 346.655 71.1937 354.553 69.4264C333.452 29.2881 291.779 1.50021 243.23 0.395854C172.003 -1.22435 112.95 55.2026 111.329 126.429C110.546 160.89 123.349 192.501 144.843 216.137C151.191 211.1 156.567 204.886 160.653 197.789Z" fill="#008000"></path></svg> 